HIERARCHY
ROOT Pelvis
{
	OFFSET 0.000000 0.000000 0.000000
	CHANNELS 6 Xposition Yposition Zposition Zrotation Yrotation Xrotation 
	JOINT Left_hip
	{
		OFFSET 0.076090 -0.089427 -0.010735
		CHANNELS 3 Zrotation Yrotation Xrotation
		JOINT Left_knee
		{
			OFFSET 0.030200 -0.359518 -0.003501
			CHANNELS 3 Zrotation Yrotation Xrotation
			JOINT Left_ankle
			{
				OFFSET -0.011005 -0.371022 -0.045888
				CHANNELS 3 Zrotation Yrotation Xrotation
				JOINT Left_foot
				{
					OFFSET 0.023930 -0.052103 0.111084
					CHANNELS 3 Zrotation Yrotation Xrotation
					End Site
					{
						OFFSET 0.000000 0.000000 0.000000
					}
				}
			}
		}
	}
	JOINT Right_hip
	{
		OFFSET -0.073836 -0.088112 -0.007709
		CHANNELS 3 Zrotation Yrotation Xrotation
		JOINT Right_knee
		{
			OFFSET -0.035715 -0.367809 -0.006536
			CHANNELS 3 Zrotation Yrotation Xrotation
			JOINT Right_ankle
			{
				OFFSET 0.013718 -0.371958 -0.043815
				CHANNELS 3 Zrotation Yrotation Xrotation
				JOINT Right_foot
				{
					OFFSET -0.021936 -0.046387 0.114542
					CHANNELS 3 Zrotation Yrotation Xrotation
					End Site
					{
						OFFSET 0.000000 0.000000 0.000000
					}
				}
			}
		}
	}
	JOINT Spine1
	{
		OFFSET -0.001865 0.102064 -0.019455
		CHANNELS 3 Zrotation Yrotation Xrotation
		JOINT Spine2
		{
			OFFSET 0.003082 0.129260 -0.001938
			CHANNELS 3 Zrotation Yrotation Xrotation
			JOINT Spine3
			{
				OFFSET 0.001104 0.048093 0.026561
				CHANNELS 3 Zrotation Yrotation Xrotation
				JOINT Neck
				{
					OFFSET -0.002010 0.204222 -0.047183
					CHANNELS 3 Zrotation Yrotation Xrotation
					JOINT Head
					{
						OFFSET 0.005050 0.063649 0.048489
						CHANNELS 3 Zrotation Yrotation Xrotation
						End Site
						{
							OFFSET 0.000000 0.000000 0.000000
						}
					}
				}
				JOINT Left_collar
				{
					OFFSET 0.072979 0.114065 -0.031633
					CHANNELS 3 Zrotation Yrotation Xrotation
					JOINT Left_shoulder
					{
						OFFSET 0.083419 0.032092 -0.006530
						CHANNELS 3 Zrotation Yrotation Xrotation
						JOINT Left_elbow
						{
							OFFSET 0.239393 -0.012014 -0.025060
							CHANNELS 3 Zrotation Yrotation Xrotation
							JOINT Left_wrist
							{
								OFFSET 0.227297 0.008116 0.000384
								CHANNELS 3 Zrotation Yrotation Xrotation
								JOINT Left_palm
								{
									OFFSET 0.074607 -0.009248 -0.012277
									CHANNELS 3 Zrotation Yrotation Xrotation
									End Site
									{
										OFFSET 0.000000 0.000000 0.000000
									}
								}
							}
						}
					}
				}
				JOINT Right_collar
				{
					OFFSET -0.074980 0.111880 -0.037894
					CHANNELS 3 Zrotation Yrotation Xrotation
					JOINT Right_shoulder
					{
						OFFSET -0.087565 0.034353 -0.009323
						CHANNELS 3 Zrotation Yrotation Xrotation
						JOINT Right_elbow
						{
							OFFSET -0.236838 -0.013719 -0.019794
							CHANNELS 3 Zrotation Yrotation Xrotation
							JOINT Right_wrist
							{
								OFFSET -0.235053 0.006433 -0.003853
								CHANNELS 3 Zrotation Yrotation Xrotation
								JOINT Right_palm
								{
									OFFSET -0.075499 -0.006894 -0.009792
									CHANNELS 3 Zrotation Yrotation Xrotation
									End Site
									{
										OFFSET 0.000000 0.000000 0.000000
									}
								}
							}
						}
					}
				}
			}
		}
	}
}
MOTION
Frames: 12
Frame Time: 0.100000
0.000000 0.000000 0.000000 169.816843 43.368965 -18.628059 0.345529 0.199811 8.627042 -2.958096 -5.983793 -7.964537 -1.920635 6.068314 -3.096108 3.010840 4.279040 -2.482085 1.736439 0.284055 8.003158 3.491527 4.439824 -5.459307 7.051112 -4.539236 -6.489483 -8.732484 5.305661 6.191336 0.971452 1.531279 -0.343988 2.495018 -3.382892 5.441089 1.480852 -0.834476 -3.225695 -3.231071 -1.534579 -10.756868 -3.248109 -9.219194 3.020061 -31.258809 -15.644907 6.344917 -51.984056 -17.746205 19.437171 6.692823 -32.422564 7.772245 0.207897 -10.065220 7.089199 -12.124446 -3.591106 -11.518109 32.382308 17.069994 7.655054 42.653042 10.985062 15.443265 -5.373894 20.614151 -0.670788 4.896123 4.861785 -1.026642 10.734330 6.171938 -6.356372 
-0.002864 0.000054 0.001569 169.794087 42.946867 -16.921243 0.366206 0.881312 6.023262 -2.277342 -9.447750 -6.223219 -1.915074 7.169864 -4.288931 4.314489 6.945885 -3.718326 2.690407 0.603684 6.433695 2.283168 7.871997 -5.780384 3.632864 -8.004688 -7.507918 -4.224327 4.908104 7.490043 0.861640 1.572883 -1.005237 3.223843 -4.606974 7.290075 0.973711 -0.489246 -6.689452 -3.150521 -3.542674 -6.854289 0.198271 -7.498291 -2.240203 -31.211065 -10.107509 3.925989 -54.123048 -8.758705 18.109212 3.632597 -15.908355 4.196509 -4.259155 -3.294194 11.360748 -14.532158 -9.628881 -14.074829 31.819315 13.052171 5.742815 46.115715 4.247709 16.837757 -6.257052 13.326962 -1.398700 5.857199 2.125307 7.080572 16.313840 9.759010 -7.429331 
-0.004455 0.000561 0.001936 169.684393 43.088153 -16.741517 0.225993 1.319897 5.961081 -2.015324 -10.602630 -6.475823 -1.979035 8.427913 -3.942286 3.409824 5.833425 -4.068152 2.754125 0.424010 6.472929 2.007321 8.962747 -6.117276 4.276780 -9.336216 -7.655506 -5.287494 5.516405 7.053045 1.152513 1.454143 -0.174208 3.271121 -4.747769 6.591844 0.923538 -0.663657 -5.282266 -2.731271 -4.775278 -8.650896 1.312300 -6.981730 -4.269914 -30.614375 -5.394561 3.547972 -54.027744 -2.638842 16.282911 3.030521 0.156121 2.193588 -6.405721 -1.081571 11.675055 -13.852333 -9.953434 -14.154874 30.964748 9.206701 4.154468 46.378461 0.137488 15.555714 -6.288760 5.001739 -3.038516 5.887573 1.202037 7.551381 16.885065 9.898414 -6.795609 
-0.005669 0.000182 0.003447 169.571624 43.058579 -16.859685 0.119529 1.418112 6.355071 -1.680069 -11.213843 -6.759857 -2.341008 9.698219 -3.945935 3.607815 4.570376 -4.443167 2.935810 0.478588 6.778702 1.759888 9.429773 -6.251543 4.699624 -9.802301 -7.631054 -5.512571 5.116332 6.699876 1.141253 1.415310 0.184057 3.472509 -4.393905 6.661476 1.148964 -0.600953 -3.890882 -2.695276 -5.077684 -9.644735 1.827846 -6.552264 -6.515817 -28.835310 0.298543 3.047818 -52.470182 3.855141 14.974386 2.287281 1.150522 4.188077 -9.614645 -2.528367 11.807728 -12.739341 -9.222315 -14.221851 29.928259 5.149518 2.992525 44.994601 -3.917244 14.033584 -6.446642 3.722430 -3.073161 6.720534 2.134720 7.312881 16.045968 8.938667 -5.956528 
-0.006427 -0.000138 0.004237 169.367190 43.469027 -17.111065 0.129791 1.311025 6.600062 -1.604079 -11.613285 -6.868829 -2.514507 10.365441 -4.074054 3.900701 3.463018 -4.441032 3.010509 0.417029 7.125067 1.726215 9.287877 -6.460946 4.358021 -9.712397 -7.545313 -4.774420 4.311833 6.839727 1.190737 1.519658 0.578514 3.465096 -3.833395 6.427738 1.309916 -0.469093 -3.205438 -2.819301 -5.517349 -9.730116 1.782144 -6.176139 -6.785688 -27.938588 3.895653 2.729174 -51.106632 7.117701 14.006636 3.355780 -1.911060 3.897149 -8.751797 -4.293979 10.147296 -11.832888 -8.253840 -13.401551 29.677793 2.626146 2.636540 44.114529 -6.085902 13.117001 -6.570156 4.417733 -3.444368 6.175078 3.218619 6.120563 14.836240 8.095921 -4.921034 
-0.006173 0.000050 0.002859 169.176450 44.314835 -17.332078 0.025445 0.974785 6.310762 -1.678345 -11.705401 -6.482057 -2.445732 10.024325 -4.112037 4.047863 3.489992 -4.371469 2.920931 0.213620 7.102392 1.800304 8.733312 -6.362611 4.018191 -9.674432 -7.556529 -4.330269 4.260342 7.056459 1.256700 1.715264 0.640819 3.396020 -3.667712 6.562942 1.261342 -0.329342 -3.381894 -3.093090 -5.048226 -8.932775 1.354197 -5.886948 -5.500180 -28.076976 3.453044 2.457215 -51.639292 5.617587 13.829193 3.851173 -3.419071 2.651604 -7.936966 -4.572403 9.308488 -11.843062 -8.062305 -12.844335 29.836343 3.050447 2.901330 44.104659 -5.052129 12.914347 -6.693053 4.400929 -4.469076 6.196271 3.316503 5.679403 14.602566 8.025716 -4.746114 
-0.005320 0.000504 -0.000673 169.052261 45.332721 -17.667481 -0.073919 0.580674 5.951101 -2.012514 -11.542586 -5.958421 -2.319734 9.066681 -4.092498 4.260133 3.923603 -3.992051 2.635951 -0.021170 6.980647 2.017062 7.848155 -6.015534 3.579638 -9.436570 -7.673856 -4.011646 4.260524 7.453942 1.642526 1.712989 1.012809 3.123469 -3.896726 6.397863 0.983798 -0.397671 -3.816473 -3.520107 -4.254637 -7.744072 0.566355 -5.180057 -3.146858 -28.999990 0.447339 2.806068 -53.159545 2.167072 13.771551 4.217716 -5.456430 0.095088 -5.987636 -4.003950 6.965536 -12.497596 -8.147237 -12.401458 29.265191 5.314275 3.515430 43.134079 -1.902564 12.969202 -7.249118 6.935579 -6.126536 5.950192 3.175994 4.579211 14.746526 8.188589 -5.098288 
-0.004376 0.000847 -0.003586 169.330161 45.586800 -17.273882 -0.271673 0.296572 5.240922 -2.302721 -10.978021 -5.570108 -2.335742 8.403717 -4.000337 4.853689 4.147446 -3.782479 2.304785 0.013092 6.409426 2.169735 7.210444 -5.813243 3.046030 -8.999460 -7.604740 -3.107990 3.976521 8.094127 2.018170 1.845147 0.787355 2.730450 -3.775376 6.042229 0.269797 -0.119101 -4.461487 -3.462444 -3.974014 -6.181413 -0.299201 -4.772251 0.601635 -29.660976 -1.442253 2.771662 -53.645269 -0.545518 14.914219 4.508418 -10.810602 0.503829 -3.830714 -4.553617 6.393562 -12.785033 -8.079969 -11.923188 28.148636 7.006824 3.510726 40.184334 1.469510 12.941076 -8.604470 11.284286 -7.128004 4.171733 3.873738 4.674587 14.528126 8.272232 -5.552090 
-0.002034 0.001301 -0.006167 169.358042 46.043127 -16.944726 -0.396646 -0.018166 4.027670 -2.447829 -10.699792 -4.637782 -2.184847 7.954116 -4.060407 5.121544 4.179902 -3.562459 2.266179 0.006355 5.524566 2.211464 6.752408 -5.347722 2.499476 -9.026744 -7.698851 -2.321787 4.004746 8.839243 2.117813 2.012802 0.729622 2.518402 -3.975093 5.762055 -0.306060 0.114971 -5.460922 -3.567673 -3.803549 -4.717605 -0.716677 -4.241729 4.227251 -29.806461 -4.167563 2.945143 -53.417903 -3.195734 16.844389 3.715267 -12.003371 0.951279 -2.296030 -4.284948 6.567254 -13.641999 -8.584349 -11.803429 27.155835 9.081206 3.227855 38.025699 4.476305 12.691750 -9.621156 12.882248 -9.615942 2.871580 4.309142 3.232295 15.043192 8.700003 -5.973851 
0.001129 0.001117 -0.005847 169.319559 46.025142 -16.851372 -0.243887 -0.131744 3.522049 -2.484929 -10.450034 -4.280436 -2.229774 7.809721 -4.148221 5.556017 4.251463 -3.525505 2.445752 0.025012 5.052649 2.250454 6.602157 -5.053723 2.577391 -8.969915 -7.747982 -2.511797 4.184615 8.987897 1.851172 2.170278 0.645571 2.428854 -3.901082 5.515984 -0.442887 0.356604 -5.798530 -3.498246 -3.471030 -3.908331 -0.969228 -4.177297 6.123533 -29.125398 -5.103975 3.006057 -53.028604 -4.017679 17.691862 3.542441 -13.471895 1.787839 -1.730082 -4.247337 6.845472 -14.034057 -8.741651 -11.926839 26.878240 10.380637 2.862760 38.053005 6.753213 12.682219 -9.841520 14.225006 -10.208186 2.648008 4.294337 2.582005 15.123262 8.741231 -6.199549 
0.003594 0.000577 -0.003167 169.575791 44.991662 -16.767298 -0.042382 0.285307 3.681033 -2.277212 -10.439813 -4.184539 -2.135197 7.743524 -4.116390 5.216421 5.684716 -4.025304 2.748133 0.344138 5.120411 2.162824 7.286204 -4.991174 3.087181 -8.867989 -7.849828 -3.169917 3.783307 8.677096 1.772890 2.336426 0.360669 2.293367 -4.009453 6.352495 -0.505433 0.467036 -5.877108 -3.660842 -2.734886 -3.543781 -1.053379 -4.132460 3.535137 -28.836171 -5.996635 3.606128 -51.884899 -1.222936 19.931756 1.966929 -12.992131 8.642132 -3.937349 -3.406652 11.567096 -14.998096 -9.957612 -14.477545 26.906278 11.499575 2.945301 40.461456 6.313814 15.406644 -7.647733 22.935612 -4.354050 3.462794 4.991494 3.285054 16.874149 9.306489 -7.286097 
0.007050 -0.000579 -0.001870 170.199787 43.812975 -17.409638 0.140676 0.861706 5.079024 -2.292494 -10.148760 -4.327097 -2.260457 6.923850 -3.616417 4.846522 8.874920 -5.350351 2.842343 0.748918 6.528873 1.976029 7.925317 -5.358380 4.689903 -8.287658 -7.822242 -5.979841 2.103096 7.185791 2.404451 1.619401 1.431705 1.383514 -4.672696 6.973667 -0.633233 -0.176420 -3.651040 -3.953923 -1.000168 -3.717802 -1.164460 -3.509222 -3.493585 -29.248905 -6.763949 6.899971 -51.830760 6.113169 21.720987 -2.886805 -17.423067 23.330211 -9.852868 -2.465891 15.680481 -16.466211 -11.260931 -20.099306 24.650612 12.856487 3.030637 45.473164 4.416181 20.222147 0.129953 46.891654 12.384795 6.016010 7.448221 2.769177 19.085077 9.419752 -9.523552 
